<svg xmlns="http://www.w3.org/2000/svg" width="256" height="256" viewBox="0 0 100 100"><rect width="100" height="100" rx="20" fill="#090909"></rect><path d="M65.89 28.53L65.89 28.53Q67.42 28.53 68.36 29.34Q69.31 30.16 69.31 31.68L69.31 31.68Q69.31 32.67 68.59 35.15Q67.87 37.63 66.69 41Q65.53 44.38 64.04 48.42Q62.56 52.47 60.89 56.48Q59.23 60.48 57.56 64.17Q55.90 67.86 54.45 70.56L54.45 70.56Q54.01 70.92 52.88 71.19Q51.76 71.47 50.50 71.47L50.50 71.47Q47.17 71.47 46.18 69.58L46.18 69.58Q45.37 68.05 44.11 65.34Q42.85 62.64 41.41 59.22Q39.97 55.80 38.44 51.94Q36.91 48.06 35.47 44.24Q34.03 40.41 32.77 36.86Q31.51 33.30 30.70 30.52L30.70 30.52Q31.33 29.62 32.41 29.07Q33.49 28.53 34.57 28.53L34.57 28.53Q36.19 28.53 37.04 29.34Q37.90 30.16 38.62 32.05L38.62 32.05L44.20 48.16Q44.73 49.69 45.55 51.89Q46.36 54.09 47.21 56.39Q48.07 58.68 48.92 60.84Q49.78 63.00 50.32 64.53L50.32 64.53L50.68 64.53Q54.28 55.45 57.38 46.63Q60.49 37.80 62.83 29.25L62.83 29.25Q64.00 28.53 65.89 28.53Z" fill="#fff"></path></svg>