<svg width="897" height="596" viewBox="0 0 897 596" fill="none" xmlns="http://www.w3.org/2000/svg">
<g clip-path="url(#clip0_181_1015)" filter="url(#filter0_d_181_1015)">
<g clip-path="url(#clip1_181_1015)">
<path d="M391.457 438.674C315.494 481.449 358.27 586.913 383.345 591.338C402.658 594.746 466.149 592.792 496.921 591.338L735.134 415.074L595.745 395.899C552.97 395.899 452.228 404.454 391.457 438.674Z" fill="white"/>
<path d="M496.921 591.338C495.822 591.393 498.111 591.281 496.921 591.338ZM496.921 591.338C466.149 592.792 402.658 594.746 383.345 591.338C358.27 586.913 315.494 481.449 391.457 438.674C452.228 404.454 552.97 395.899 595.745 395.899L735.134 415.074L496.921 591.338Z" stroke="black" stroke-width="2.91102"/>
<path d="M412.106 453.152C464.616 443.122 507.244 473.965 521.994 490.64C524.458 487.195 527.122 483.789 529.998 480.44C525.464 460.527 437.181 439.14 412.106 453.152Z" fill="#000001"/>
<path d="M491.596 593.52C493.46 593.439 495.239 593.358 496.92 593.278L691.486 449.312C682.915 446.413 660.823 437.494 641.029 425.009C506.733 440.923 485.451 543.981 491.596 593.52Z" fill="#0E1729"/>
<path d="M713.745 593.277C810.357 562.302 735.132 422.176 735.132 417.014L698.994 412.042C514.913 423.405 487.576 537.6 496.918 593.277L527.984 849.191H608.037L614.919 593.277H713.745Z" fill="white" stroke="black" stroke-width="2.91102"/>
<path d="M595.745 540.178C607.545 551.978 613.446 580.495 614.921 593.278H625.983C623.033 578.774 612.855 547.848 595.745 540.178Z" fill="#000001"/>
<rect x="98" y="593" width="796" height="3" fill="black"/>
<path d="M610.714 146.088C606.83 141.143 596.73 125.958 587.407 104.77C589.526 102.297 593.552 94.8104 592.704 84.6398C581.686 82.9447 575.009 59.2134 573.048 47.5596C587.679 39.4435 575.212 17.7929 579.991 16.8366C585.288 15.7766 599.061 21.0738 599.061 34.8464C599.061 48.619 622.657 42.118 628.725 39.0841C643.556 31.6681 638.26 49.6796 631.903 66.63C628.513 72.5628 640.378 83.9341 646.735 88.8781C648.429 105.829 633.315 131.962 625.546 142.909C626.606 174.692 626.818 238.258 619.19 238.258C614.105 228.088 611.421 172.573 610.714 146.088Z" fill="white" stroke="black" stroke-width="1.94068"/>
<path d="M601.177 49.6725C599.411 51.4383 596.939 56.4529 601.177 62.3858" stroke="#241715" stroke-width="0.970341"/>
<path d="M609.652 65.5718C608.946 69.4564 605.838 75.3186 599.058 67.6907" stroke="#241715" stroke-width="0.970341"/>
<path d="M632.96 52.8538C634.372 48.9692 636.138 41.4119 631.9 42.2594" stroke="#241715" stroke-width="0.970341"/>
<path d="M591.572 96.2916C592.506 93.0569 593.075 89.1066 592.702 84.6383C598.573 87.817 608.592 88.8765 629.781 74.0435C630.627 85.0616 604.661 93.4664 591.572 96.2916Z" fill="black"/>
<path d="M645.674 16.8356C653.09 34.846 636.139 59.213 631.901 66.629C638.258 49.6786 642.495 31.6671 628.723 39.0832C622.75 42.2994 599.059 48.6181 599.059 34.8454C599.059 21.0728 585.286 15.7756 579.989 16.8356C575.21 17.7919 587.677 39.4426 573.047 47.5587C571.46 48.4386 569.556 49.1594 567.276 49.6775C572.573 42.2615 570.454 43.3209 566.217 25.3105C561.979 7.30016 581.049 3.06296 599.059 0.944096C617.069 -1.17477 638.258 -1.17477 645.674 16.8356Z" fill="black"/>
<path d="M745.26 131.256C731.699 113.457 673.924 95.5883 646.732 88.8785C648.427 105.829 633.313 131.962 625.544 142.91C626.604 174.693 626.815 238.259 619.188 238.259C614.102 228.088 611.418 172.574 610.712 146.088C606.827 141.144 596.728 125.959 587.405 104.77C585.286 111.127 528.076 154.563 518.541 168.336C509.006 182.109 505.828 314.538 505.828 326.192C505.828 337.846 501.59 417.303 536.552 417.303C564.521 417.303 678.869 421.188 736.784 422.6C745.26 332.901 758.82 149.054 745.26 131.256Z" fill="black"/>
<path d="M505.831 326.185C563.747 314.178 679.578 300.971 679.578 344.196C679.578 387.42 625.9 411.849 599.061 418.659M679.578 98.3068C672.515 101.518 657.542 116.629 654.152 151.379C649.914 194.815 636.311 209.647 625.291 209.647M614.477 211.766C605.454 216.71 585.712 220.454 578.932 195.875C570.457 165.151 552.774 148.2 533.011 153.497M711.361 110.061C709.242 109.165 675.341 132.309 672.162 185.28C668.984 238.252 635.082 337.839 565.159 284.867C538.672 258.381 513.151 241.784 508.865 243.549M587.408 418.339C596.942 409.163 613.47 387.844 603.299 375.979C593.128 364.113 537.497 380.216 510.953 389.751M750.348 158.795C727.464 172.92 685.299 217.911 699.708 284.867C712.421 323.007 735.653 319.122 745.68 312.413M741.847 364.325C728.153 364.505 702.038 376.254 707.124 421.805" stroke="white" stroke-width="0.970341"/>
<path d="M619.188 417.293V239.308" stroke="#027269" stroke-width="0.970341"/>
<path d="M619.824 415.56L614.617 376.847C602.777 378.995 578.119 381.076 559.071 382.881C539.13 384.771 534.105 395.241 547.49 398.585C540.489 397.711 532.65 407.364 543.822 411.686C535.627 414.597 551.836 417.845 559.782 417.861C555.234 418.548 547.349 419.815 548.421 424.634C549.493 429.452 596.469 420.592 619.824 415.56Z" fill="white"/>
<path d="M619.824 415.561L614.617 376.848C611.863 377.348 608.415 377.844 604.505 378.334L592.66 420.952C602.612 419.142 612.409 417.159 619.824 415.561Z" fill="black"/>
<path d="M560.106 418.146L576.58 413.509" stroke="black" stroke-width="0.970341"/>
<path d="M547.596 407.801L576.476 404.295" stroke="black" stroke-width="0.970341"/>
<path d="M547.491 398.584L576.988 393.482" stroke="black" stroke-width="0.970341"/>
<path d="M776.692 381.565C779.255 340.991 782.054 136.522 736.286 125.5C683.382 112.759 684.076 307.755 707.043 352.24L599.016 363.222L609.152 430.623C661.673 426.955 772.449 448.703 776.692 381.565Z" fill="black"/>
<path d="M736.285 125.499C683.382 112.759 684.075 307.754 707.043 352.24L599.015 363.222" stroke="white" stroke-width="0.970341"/>
<path d="M758.322 154.883C741.975 156.661 705.645 166.099 696.733 188.221M768.493 190.481C753.761 196.925 719.271 218.617 714.92 240.885C710.57 263.152 756.646 255.634 775.274 251.505M776.404 290.493C760.92 297.722 706.644 302.52 694.473 285.973M776.968 359.993C761.111 350.37 715.46 331.161 703.514 338.522M660.571 356.603C653.79 371.294 664.409 425.315 694.473 431.189" stroke="white" stroke-width="0.970341"/>
<path d="M313.324 279.458H495.26C498.447 279.458 501.311 281.407 502.481 284.372L556.515 421.342C557.685 424.307 560.548 426.256 563.736 426.256H705.251C707.854 426.256 709.964 428.366 709.964 430.969C709.964 433.573 707.854 435.683 705.251 435.683H369.118C365.935 435.683 363.075 433.74 361.902 430.782L306.107 290.082C304.087 284.986 307.842 279.458 313.324 279.458Z" fill="white" stroke="black" stroke-width="2.91102"/>
<path d="M501.651 282.129L561.502 426.256H557.46C554.326 426.256 551.499 424.371 550.294 421.477L493.65 285.456C492.462 282.603 494.559 279.458 497.65 279.458C499.401 279.458 500.98 280.512 501.651 282.129Z" fill="black"/>
<path d="M361.902 430.782L306.107 290.082C304.087 284.986 307.842 279.458 313.324 279.458H327.352C328.507 279.458 329.643 279.716 330.692 280.199C335.658 282.486 343.954 286.082 357.731 293.043C403.822 316.331 409.644 365.818 399.941 390.077C392.074 409.743 496.053 430.071 536.905 435.683H369.118C365.935 435.683 363.075 433.74 361.902 430.782Z" fill="black"/>
<ellipse cx="11.5736" cy="13.3097" rx="11.5736" ry="13.3097" transform="matrix(-0.936312 0.351169 0.351169 0.936312 430.862 327.975)" fill="black"/>
</g>
</g>
<defs>
<filter id="filter0_d_181_1015" x="0" y="0" width="897" height="604" filterUnits="userSpaceOnUse" color-interpolation-filters="sRGB">
<feFlood flood-opacity="0" result="BackgroundImageFix"/>
<feColorMatrix in="SourceAlpha" type="matrix" values="0 0 0 0 0 0 0 0 0 0 0 0 0 0 0 0 0 0 127 0" result="hardAlpha"/>
<feOffset dy="4"/>
<feGaussianBlur stdDeviation="2"/>
<feComposite in2="hardAlpha" operator="out"/>
<feColorMatrix type="matrix" values="0 0 0 0 0 0 0 0 0 0 0 0 0 0 0 0 0 0 0.25 0"/>
<feBlend mode="normal" in2="BackgroundImageFix" result="effect1_dropShadow_181_1015"/>
<feBlend mode="normal" in="SourceGraphic" in2="effect1_dropShadow_181_1015" result="shape"/>
</filter>
<clipPath id="clip0_181_1015">
<rect width="889" height="596" fill="white" transform="translate(4)"/>
</clipPath>
<clipPath id="clip1_181_1015">
<rect width="889" height="596" fill="white" transform="translate(4)"/>
</clipPath>
</defs>
</svg>
