<svg width="40" height="46" viewBox="0 0 40 46" fill="none" xmlns="http://www.w3.org/2000/svg">
<g filter="url(#filter0_d_3537_40)">
<path d="M31.5294 14.2118C31.5294 18.8819 28.7623 22.9082 24.7793 24.7351C26.4612 23.3496 27.5322 21.248 27.5322 18.896C27.5322 14.7642 24.2259 11.4042 20.112 11.3205C20.0574 11.3167 20.0075 11.3167 19.9529 11.3167C19.8983 11.3167 19.8485 11.3167 19.7939 11.3205C18.2673 11.4033 17.0588 12.6663 17.0588 14.2108V28.6814C17.0588 33.4748 13.1699 37.3638 8.37646 37.3638V14.2118C8.37646 7.81928 13.5605 2.63528 19.9529 2.63528C26.3454 2.63528 31.5294 7.81928 31.5294 14.2118Z" fill="black"/>
<path d="M21.9992 16.2582C23.1294 15.128 23.1294 13.2956 21.9992 12.1654C20.8689 11.0351 19.0365 11.0351 17.9063 12.1654C16.7761 13.2956 16.7761 15.128 17.9063 16.2582C19.0365 17.3884 20.8689 17.3884 21.9992 16.2582Z" fill="black"/>
</g>
<defs>
<filter id="filter0_d_3537_40" x="-4" y="0" width="47.9059" height="48" filterUnits="userSpaceOnUse" color-interpolation-filters="sRGB">
<feFlood flood-opacity="0" result="BackgroundImageFix"/>
<feColorMatrix in="SourceAlpha" type="matrix" values="0 0 0 0 0 0 0 0 0 0 0 0 0 0 0 0 0 0 127 0" result="hardAlpha"/>
<feOffset dy="4"/>
<feGaussianBlur stdDeviation="2"/>
<feComposite in2="hardAlpha" operator="out"/>
<feColorMatrix type="matrix" values="0 0 0 0 0 0 0 0 0 0 0 0 0 0 0 0 0 0 0.25 0"/>
<feBlend mode="normal" in2="BackgroundImageFix" result="effect1_dropShadow_3537_40"/>
<feBlend mode="normal" in="SourceGraphic" in2="effect1_dropShadow_3537_40" result="shape"/>
</filter>
</defs>
</svg>
